<?xml version="1.0" encoding="UTF-8" standalone="no"?>
<!-- Created with Inkscape (http://www.inkscape.org/) -->

<svg
   xmlns:dc="http://purl.org/dc/elements/1.1/"
   xmlns:cc="http://creativecommons.org/ns#"
   xmlns:rdf="http://www.w3.org/1999/02/22-rdf-syntax-ns#"
   xmlns:svg="http://www.w3.org/2000/svg"
   xmlns="http://www.w3.org/2000/svg"
   xmlns:sodipodi="http://sodipodi.sourceforge.net/DTD/sodipodi-0.dtd"
   xmlns:inkscape="http://www.inkscape.org/namespaces/inkscape"
   width="300mm"
   height="160mm"
   viewBox="0 0 1062.992 566.92919"
   id="svg2"
   version="1.1"
   inkscape:version="0.91 r13725"
   sodipodi:docname="cpd_illustration.svg">
  <defs
     id="defs4">
    <marker
       inkscape:stockid="Arrow1Sstart"
       orient="auto"
       refY="0"
       refX="0"
       id="marker6902"
       style="overflow:visible"
       inkscape:isstock="true">
      <path
         id="path6904"
         d="M 0,0 5,-5 -12.5,0 5,5 0,0 Z"
         style="fill:#000000;fill-opacity:1;fill-rule:evenodd;stroke:#000000;stroke-width:1pt;stroke-opacity:1"
         transform="matrix(0.2,0,0,0.2,1.2,0)"
         inkscape:connector-curvature="0" />
    </marker>
    <marker
       inkscape:stockid="Arrow1Send"
       orient="auto"
       refY="0"
       refX="0"
       id="marker6838"
       style="overflow:visible"
       inkscape:isstock="true">
      <path
         id="path6840"
         d="M 0,0 5,-5 -12.5,0 5,5 0,0 Z"
         style="fill:#000000;fill-opacity:1;fill-rule:evenodd;stroke:#000000;stroke-width:1pt;stroke-opacity:1"
         transform="matrix(-0.2,0,0,-0.2,-1.2,0)"
         inkscape:connector-curvature="0" />
    </marker>
    <marker
       inkscape:stockid="Arrow1Send"
       orient="auto"
       refY="0"
       refX="0"
       id="Arrow1Send"
       style="overflow:visible"
       inkscape:isstock="true">
      <path
         id="path4601"
         d="M 0,0 5,-5 -12.5,0 5,5 0,0 Z"
         style="fill:#000000;fill-opacity:1;fill-rule:evenodd;stroke:#000000;stroke-width:1pt;stroke-opacity:1"
         transform="matrix(-0.2,0,0,-0.2,-1.2,0)"
         inkscape:connector-curvature="0" />
    </marker>
    <marker
       inkscape:stockid="Arrow1Sstart"
       orient="auto"
       refY="0"
       refX="0"
       id="Arrow1Sstart"
       style="overflow:visible"
       inkscape:isstock="true">
      <path
         id="path4598"
         d="M 0,0 5,-5 -12.5,0 5,5 0,0 Z"
         style="fill:#000000;fill-opacity:1;fill-rule:evenodd;stroke:#000000;stroke-width:1pt;stroke-opacity:1"
         transform="matrix(0.2,0,0,0.2,1.2,0)"
         inkscape:connector-curvature="0" />
    </marker>
    <marker
       inkscape:stockid="Arrow1Mend"
       orient="auto"
       refY="0"
       refX="0"
       id="marker4994"
       style="overflow:visible"
       inkscape:isstock="true">
      <path
         id="path4996"
         d="M 0,0 5,-5 -12.5,0 5,5 0,0 Z"
         style="fill:#000000;fill-opacity:1;fill-rule:evenodd;stroke:#000000;stroke-width:1pt;stroke-opacity:1"
         transform="matrix(-0.4,0,0,-0.4,-4,0)"
         inkscape:connector-curvature="0" />
    </marker>
    <marker
       inkscape:stockid="Arrow1Mstart"
       orient="auto"
       refY="0"
       refX="0"
       id="Arrow1Mstart"
       style="overflow:visible"
       inkscape:isstock="true">
      <path
         id="path4592"
         d="M 0,0 5,-5 -12.5,0 5,5 0,0 Z"
         style="fill:#000000;fill-opacity:1;fill-rule:evenodd;stroke:#000000;stroke-width:1pt;stroke-opacity:1"
         transform="matrix(0.4,0,0,0.4,4,0)"
         inkscape:connector-curvature="0" />
    </marker>
    <marker
       inkscape:stockid="Arrow1Mend"
       orient="auto"
       refY="0"
       refX="0"
       id="Arrow1Mend"
       style="overflow:visible"
       inkscape:isstock="true">
      <path
         id="path4595"
         d="M 0,0 5,-5 -12.5,0 5,5 0,0 Z"
         style="fill:#000000;fill-opacity:1;fill-rule:evenodd;stroke:#000000;stroke-width:1pt;stroke-opacity:1"
         transform="matrix(-0.4,0,0,-0.4,-4,0)"
         inkscape:connector-curvature="0" />
    </marker>
    <marker
       inkscape:stockid="Arrow1Lend"
       orient="auto"
       refY="0"
       refX="0"
       id="Arrow1Lend"
       style="overflow:visible"
       inkscape:isstock="true">
      <path
         id="path4589"
         d="M 0,0 5,-5 -12.5,0 5,5 0,0 Z"
         style="fill:#000000;fill-opacity:1;fill-rule:evenodd;stroke:#000000;stroke-width:1pt;stroke-opacity:1"
         transform="matrix(-0.8,0,0,-0.8,-10,0)"
         inkscape:connector-curvature="0" />
    </marker>
    <marker
       inkscape:stockid="Arrow1Lstart"
       orient="auto"
       refY="0"
       refX="0"
       id="Arrow1Lstart"
       style="overflow:visible"
       inkscape:isstock="true">
      <path
         id="path4586"
         d="M 0,0 5,-5 -12.5,0 5,5 0,0 Z"
         style="fill:#000000;fill-opacity:1;fill-rule:evenodd;stroke:#000000;stroke-width:1pt;stroke-opacity:1"
         transform="matrix(0.8,0,0,0.8,10,0)"
         inkscape:connector-curvature="0" />
    </marker>
  </defs>
  <sodipodi:namedview
     id="base"
     pagecolor="#ffffff"
     bordercolor="#666666"
     borderopacity="1.0"
     inkscape:pageopacity="0.0"
     inkscape:pageshadow="2"
     inkscape:zoom="1.5539861"
     inkscape:cx="421.45644"
     inkscape:cy="307.96997"
     inkscape:document-units="px"
     inkscape:current-layer="g7002"
     showgrid="false"
     units="mm"
     width="400mm"
     inkscape:window-width="1918"
     inkscape:window-height="1042"
     inkscape:window-x="0"
     inkscape:window-y="18"
     inkscape:window-maximized="0" />
  <metadata
     id="metadata7">
    <rdf:RDF>
      <cc:Work
         rdf:about="">
        <dc:format>image/svg+xml</dc:format>
        <dc:type
           rdf:resource="http://purl.org/dc/dcmitype/StillImage" />
        <dc:title></dc:title>
      </cc:Work>
    </rdf:RDF>
  </metadata>
  <g
     inkscape:label="Layer 1"
     inkscape:groupmode="layer"
     id="layer1"
     transform="translate(0,-485.43327)">
    <g
       id="g7002"
       transform="translate(1148,362.00003)">
      <path
         inkscape:connector-curvature="0"
         id="path4152"
         d="m -1126.4789,469.51709 c 3.1889,-12.75546 -0.5157,-2.04326 2.8169,-7.04225 0.5824,-0.87348 0.939,-1.87794 1.4085,-2.8169 0.4695,-0.93897 0.6661,-2.07459 1.4084,-2.8169 0.7424,-0.74232 1.9435,-0.82613 2.8169,-1.40845 0.5525,-0.3683 0.939,-0.93897 1.4085,-1.40846 0.939,-0.93896 1.8779,-1.87793 2.8169,-2.8169 0.7415,-0.7415 3.4731,-3.84923 4.2253,-4.22535 0.42,-0.20996 1.0765,0.33198 1.4085,0 0.332,-0.33197 -0.332,-1.07647 0,-1.40845 0.6639,-0.66395 1.9771,0.41992 2.8169,0 6.4,-3.2 -3.5831,0.3831 2.8169,-2.8169 0.42,-0.20996 0.9886,0.20996 1.4085,0 0.5938,-0.29693 0.8146,-1.11152 1.4084,-1.40845 0.42,-0.20996 0.9886,0.20996 1.4085,0 1.1877,-0.59386 1.6292,-2.22305 2.8169,-2.8169 0.4199,-0.20996 0.939,0 1.4084,0 0.4695,-0.46949 0.8146,-1.11153 1.4085,-1.40845 0.8852,-0.44262 4.7486,0.44262 5.6338,0 0.4199,-0.20996 -0.332,-1.07648 0,-1.40845 0.332,-0.33198 0.939,0 1.4084,0 0.939,0 1.878,0 2.8169,0 2.3475,0 4.6949,0 7.0423,0 1.4084,0 2.836,-0.23155 4.2253,0 1.4645,0.24407 2.7696,1.11729 4.2254,1.40845 0.9207,0.18414 1.8779,0 2.8169,0 1.4084,0.46948 2.7695,1.11729 4.2253,1.40845 0.9208,0.18414 1.878,0 2.8169,0 1.878,0 3.7559,0 5.6338,0 0.7366,0 5.2635,0.18517 5.6338,0 0.5939,-0.29693 0.8146,-1.11153 1.4085,-1.40845 0.4199,-0.20996 0.939,0 1.4084,0 0.4695,0 0.939,0 1.4085,0 2.8169,0 5.6338,0 8.4507,0 0.4798,0 4.8715,0.25408 5.6338,0 0.9959,-0.33198 1.821,-1.07648 2.8169,-1.40845 0.8908,-0.29693 1.9261,0.29692 2.8169,0 0.9959,-0.33198 1.9434,-0.82613 2.8169,-1.40845 0.5524,-0.3683 0.7786,-1.1985 1.4085,-1.40846 0.8907,-0.29692 1.9059,0.22774 2.8169,0 4.0848,-1.0212 1.6482,-1.09883 4.2253,-2.8169 1.1145,-0.74301 7.2073,-3.81087 8.4507,-4.22535 0.4454,-0.14846 0.9885,0.20996 1.4085,0 0.5938,-0.29693 0.856,-1.04016 1.4084,-1.40845 0.939,-0.46948 1.8779,-0.93897 2.8169,-1.40845 0.4695,0 0.9885,0.20996 1.4084,0 0.5939,-0.29693 0.8146,-1.11152 1.4085,-1.40845 0.8852,-0.44262 4.7486,0.44262 5.6338,0 0.5938,-0.29693 0.939,-0.93897 1.4084,-1.40845 0.939,0 1.9262,0.29693 2.8169,0 0.6299,-0.20996 0.8561,-1.04016 1.4085,-1.40845 0.8735,-0.58233 1.9434,-0.82613 2.8169,-1.40845 0.5524,-0.3683 0.7786,-1.19849 1.4084,-1.40845 0.8908,-0.29693 1.906,0.22773 2.817,0 1.0184,-0.25462 1.7984,-1.15384 2.8169,-1.40845 0.9109,-0.22774 1.9261,0.29692 2.8169,0 0.6298,-0.20996 0.7785,-1.1985 1.4084,-1.40846 0.8908,-0.29692 1.906,0.22774 2.8169,0 6.8013,-1.70033 -0.07,-0.66932 4.2254,-2.8169 0.4199,-0.20996 0.9389,0 1.4084,0 0.4695,0 0.939,0 1.4085,0 2.3474,0 4.6948,0 7.0422,0 4.2254,0 8.4507,0 12.6761,0 1.4084,0 2.836,-0.23154 4.2253,0 1.4645,0.24408 2.7609,1.16438 4.2254,1.40845 1.3893,0.23155 2.8442,-0.27622 4.2253,0 10.1917,2.03833 -6.437,1.40845 7.0423,1.40845 7.9812,0 15.9624,0 23.9436,0 2.3475,0 4.6949,0 7.0423,0 1.4084,0 2.8442,0.27622 4.2253,0 1.0295,-0.20588 1.7814,-1.23586 2.8169,-1.40845 4.2638,-0.71063 9.7515,0.61901 14.0846,0 1.9162,-0.27375 3.698,-1.40845 5.6338,-1.40845 1.0498,0 1.7984,1.15384 2.8169,1.40845 2.2773,0.56934 4.7404,-0.46036 7.0422,0 1.0294,0.20589 1.7985,1.15384 2.8169,1.40845 1.3664,0.3416 2.8892,-0.44539 4.2254,0 0.9959,0.33198 1.8209,1.07648 2.8169,1.40846 0.8398,0.27993 7.0861,0 8.4507,0 5.6338,0 11.2676,0 16.9014,0 2.8169,0 5.6338,0 8.4507,0 0.4695,0 0.939,0 1.4084,0 0.4695,0 0.9886,0.20995 1.4085,0 6.4459,-3.22297 -5.9767,0.58376 4.2253,-2.81691 0.4454,-0.14846 0.939,0 1.4085,0 1.4084,-0.46948 2.8974,-0.7445 4.2253,-1.40845 0.5939,-0.29692 0.8146,-1.11152 1.4085,-1.40845 6.808,-3.40403 1.6706,-0.33413 7.0422,-1.40845 1.4559,-0.29116 2.761,-1.16438 4.2254,-1.40845 1.891,-0.31517 9.1315,0 11.2676,0 5.6338,0 11.2676,0 16.9014,0 2.3474,0 4.6948,0 7.0423,0 0.4694,0 0.9389,0 1.4084,0 0.4695,0 0.9885,0.20996 1.4085,0 0.5938,-0.29693 0.9389,-0.93897 1.4084,-1.40845 0.939,-0.93897 1.712,-2.08031 2.8169,-2.8169 0.3907,-0.26042 0.9886,0.20996 1.4085,0 0.5938,-0.29693 0.9389,-0.93897 1.4084,-1.40845 0.939,-0.93897 1.7546,-2.02016 2.8169,-2.8169 2.1757,-1.63177 6.1053,-2.66175 8.4507,-4.22536 0.8731,-0.58203 1.9439,-2.23486 2.8169,-2.8169 0.8735,-0.58232 1.9434,-0.82612 2.8169,-1.40845 0.5525,-0.36829 0.8146,-1.11152 1.4085,-1.40845 3.5479,-1.77394 -1.2189,5.34943 4.2253,-2.8169 0.2605,-0.39063 0,-0.93897 0,-1.40845 0,-0.93897 -0.2969,-1.92612 0,-2.8169 0.21,-0.62988 1.0402,-0.85601 1.4085,-1.40845 0.5823,-0.87349 0.5349,-2.23458 1.4084,-2.8169 0.7813,-0.52085 2.0357,0.52084 2.8169,0 0.8735,-0.58233 0.7786,-1.97707 1.4085,-2.81691 0.7967,-1.06232 1.8779,-1.87793 2.8169,-2.8169 0.4695,-0.46948 0.856,-1.04015 1.4084,-1.40845 0.8735,-0.58232 1.9435,-0.82613 2.8169,-1.40845 0.5525,-0.36829 0.856,-1.04016 1.4085,-1.40845 0.8735,-0.58232 2.0746,-0.66613 2.8169,-1.40845 0.332,-0.33197 -0.21,-0.98853 0,-1.40845 0.2969,-0.59386 1.1115,-0.8146 1.4084,-1.40845 0.21,-0.41992 -0.2099,-0.98853 0,-1.40845 0.297,-0.59386 1.1116,-0.8146 1.4085,-1.40845 0.21,-0.41992 -0.332,-1.07648 0,-1.40845 0.332,-0.33198 1.0765,0.33197 1.4084,0 10e-4,-10e-4 0,-4.21897 0,-4.22536 1.1406,-3.42178 1.6763,0.60489 2.8169,-2.8169 0.5939,-1.78156 -0.5938,-3.85223 0,-5.6338 0.21,-0.62988 1.0402,-0.85601 1.4085,-1.40845 0.5823,-0.87348 0.939,-1.87793 1.4084,-2.8169 0.4695,-0.93897 1.1539,-1.79845 1.4085,-2.8169 0.2277,-0.91093 -0.2969,-1.92612 0,-2.8169 0.21,-0.62988 1.0402,-0.85602 1.4084,-1.40845 0.5824,-0.87349 0.8262,-1.94342 1.4085,-2.81691 0.3683,-0.55244 1.0402,-0.85601 1.4084,-1.40845 1.1647,-1.74697 1.6523,-3.88683 2.8169,-5.6338 0.3683,-0.55244 1.0402,-0.85601 1.4085,-1.40845 0.493,-0.73953 1.4329,-3.76402 2.8169,-4.22535 0.8908,-0.29693 2.153,0.66395 2.8169,0 0.664,-0.66395 -0.4199,-1.97707 0,-2.8169 0.21,-0.41992 0.9885,0.20996 1.4085,0 1.6901,-0.84507 2.5352,-3.38029 4.2253,-4.22536 0.4199,-0.20996 0.9885,0.20996 1.4085,0 1.2483,-0.62418 2.9432,-3.37059 4.2253,-4.22535 2.0525,-1.36834 2.9336,-0.87929 4.2254,-2.8169 0.5823,-0.87348 0.5349,-2.23458 1.4084,-2.8169 0.7813,-0.52085 2.0356,0.52084 2.8169,0 0.8735,-0.58232 0.8261,-1.94342 1.4085,-2.8169 0.3683,-0.55244 0.9389,-0.93897 1.4084,-1.40845 1.4085,-1.40845 2.8169,-2.8169 4.2254,-4.22536 0.4694,-0.46948 1.1115,-0.81459 1.4084,-1.40845 0.21,-0.41991 -0.332,-1.07647 0,-1.40845 2.9142,-2.91413 -0.1139,4.45319 2.8169,-1.40845 0.4467,-0.8934 -0.4575,-6.12729 0,-7.04225 0.5939,-1.18771 2.397,-1.55715 2.8169,-2.8169 0.2969,-0.89078 -0.2969,-1.92612 0,-2.8169 -0.5264,-3.06833 2.3474,-0.46949 2.8169,-1.40845 0.4199,-0.83984 -0.4199,-1.97707 0,-2.81691 0.21,-0.41991 0.9886,0.20996 1.4085,0 0.3739,-0.18698 4.0383,-3.85139 4.2253,-4.22535 0.4199,-0.83984 -0.4199,-1.97706 0,-2.8169 0.297,-0.59385 1.1115,-0.8146 1.4085,-1.40845 0.4362,-0.87241 -0.4168,-5.21707 0,-5.6338 0.3319,-0.33198 1.0765,0.33197 1.4084,0 0.3854,-0.38539 -0.382,-4.86974 0,-5.63381 0.297,-0.59385 1.1115,-0.81459 1.4085,-1.40845 0.4199,-0.83983 -0.4199,-1.97706 0,-2.8169 0.1348,-0.2696 5.3642,-5.499 5.6338,-5.6338 0.4199,-0.20996 1.1985,0.41992 1.4084,0 0.4199,-0.83984 -0.6639,-2.15295 0,-2.8169 1.0498,-1.0498 3.0377,-0.51767 4.2254,-1.40845 0.8398,-0.62988 0.8261,-1.94342 1.4084,-2.8169 2.1572,-3.23573 0.8045,0.60394 4.2254,-2.81691 0.332,-0.33197 -0.1485,-0.96306 0,-1.40845 3.4006,-10.20199 -0.4061,2.22058 2.8169,-4.22535 0.2099,-0.41992 -0.21,-0.98853 0,-1.40845 0.5938,-1.18771 2.223,-1.62919 2.8169,-2.8169 0.7539,-1.50773 -1.2196,-3.00575 1.4084,-5.6338 0.332,-0.33198 0.9886,0.20996 1.4085,0 0.5938,-0.29693 0.8146,-1.11153 1.4084,-1.40845 0.42,-0.20996 1.0765,0.33197 1.4085,0 0.332,-0.33198 0,-0.93897 0,-1.40845 0,-0.46949 0,-0.93897 0,-1.40846 0,-1.87793 0,-3.75586 0,-5.6338 0,-0.46948 0,-0.93897 0,-1.40845 0,-0.46948 -0.21,-0.98853 0,-1.40845 0.5938,-1.18771 2.223,-1.62919 2.8169,-2.8169 0.21,-0.41992 -0.332,-1.07648 0,-1.40845 0.332,-0.33198 1.1985,0.41992 1.4084,0 0.42,-0.83984 -0.4199,-1.97707 0,-2.8169 0.21,-0.41992 1.0765,0.33197 1.4085,0 0.332,-0.33198 -0.21,-0.98854 0,-1.40845 0.2969,-0.59386 1.1115,-0.8146 1.4084,-1.40845 0.21,-0.41992 -0.2099,-0.98854 0,-1.40846 0.297,-0.59385 1.1116,-0.81459 1.4085,-1.40845 0.21,-0.41991 -0.332,-1.07647 0,-1.40845 0.332,-0.33197 1.0765,0.33198 1.4084,0 0.332,-0.33197 -0.2099,-0.98853 0,-1.40845 0.297,-0.59385 1.1116,-0.81459 1.4085,-1.40845 0.21,-0.41992 -0.332,-1.07647 0,-1.40845 0.6639,-0.66395 1.9771,0.41992 2.8169,0 0.5939,-0.29693 0.8146,-1.11152 1.4084,-1.40845 0.42,-0.20996 1.0765,0.33198 1.4085,0 0.332,-0.33197 -0.4199,-1.19849 0,-1.40845 0.9112,-0.4556 5.1279,0.50594 5.6338,0 2.9141,-2.91413 -4.4532,0.11392 1.4085,-2.8169 0.8962,-0.44812 5.8245,0.40589 7.0422,0 0.9959,-0.33198 1.7985,-1.15384 2.8169,-1.40845 0.9109,-0.22774 1.8779,0 2.8169,0 3.2864,0 6.5728,0 9.8592,0 0.9389,0 1.8779,0 2.8169,0 0.9389,0 1.9059,0.22773 2.8169,0 6.8013,-1.70033 -0.07,-0.66933 4.2253,-2.8169 0.4199,-0.20996 0.9886,0.20996 1.4085,0 0.5938,-0.29693 0.8146,-1.11153 1.4084,-1.40845 0.4199,-0.20996 0.939,0 1.4085,0 0.9389,0 1.9261,0.29692 2.8169,0 0.6299,-0.20996 0.9389,-0.93897 1.4084,-1.40846 0.939,-0.46948 1.7875,-1.20256 2.8169,-1.40845 10.7446,0 -1.111,0.62988 7.0423,-1.40845 0.9109,-0.22773 1.8779,0 2.8169,0 1.4084,0 2.8169,0 4.2253,0 0.939,0 1.9771,0.41992 2.8169,0 0.42,-0.20996 -0.3319,-1.07647 0,-1.40845 0.664,-0.66395 2.153,0.66395 2.8169,0 0.332,-0.33197 -0.3319,-1.07647 0,-1.40845 0.332,-0.33197 0.939,0 1.4085,0 0.958,0 6.7619,0.18692 7.0422,0 0.8735,-0.58232 0.6662,-2.07458 1.4085,-2.8169 0.332,-0.33197 0.939,0 1.4084,0 0.8116,0 6.5289,-0.25667 7.0423,0 0.5938,0.29693 0.7786,1.19849 1.4084,1.40845 6.0981,2.03269 -0.5176,-2.69253 5.6338,1.40845 0.5525,0.3683 0.7786,1.19849 1.4085,1.40845 0.8908,0.29693 1.906,-0.22773 2.8169,0 1.0185,0.25462 1.8422,1.01857 2.8169,1.40845 1.3785,0.55138 2.8469,0.85707 4.2254,1.40845 0.9747,0.38989 1.7874,1.20257 2.8169,1.40845 1.3811,0.27622 2.8442,-0.27622 4.2253,0 2.0588,0.41177 3.575,2.40514 5.6338,2.81691 1.3811,0.27622 2.8169,0 4.2254,0 2.8169,0 5.6338,0 8.4507,0 2.8169,0 5.6338,0 8.4507,0 0.9389,0 1.9059,0.22773 2.8169,0 1.0184,-0.25462 1.7984,-1.15384 2.8169,-1.40845 0.9109,-0.22774 1.8779,0 2.8169,0 2.8169,0 5.6338,0 8.4507,0 0.9389,0 1.9261,0.29692 2.8169,0 0.9959,-0.33198 1.7984,-1.15384 2.8169,-1.40846 1.0711,-0.26777 5.8628,0 7.0422,0 12.6761,0 25.3521,0 38.0282,0 4.6948,0 9.3897,0 14.0845,0 1.4085,0 2.8443,0.27622 4.2254,0 1.0294,-0.20588 1.8209,-1.07647 2.8169,-1.40845 0.4454,-0.14846 0.9389,0 1.4084,0 1.4184,0 7.6718,0.25964 8.4507,0 0.6299,-0.20996 0.7786,-1.19849 1.4085,-1.40845 0.8908,-0.29692 1.8779,0 2.8169,0 0.9389,0 1.8779,0 2.8169,0 4.6948,0 9.3896,0 14.0845,0 4.2253,0 8.4507,0 12.676,0 0.939,0 1.878,0 2.8169,0 0.939,0 1.906,0.22774 2.8169,0 1.0185,-0.25461 1.7985,-1.15383 2.8169,-1.40845 0.911,-0.22773 1.906,0.22774 2.8169,0 1.0185,-0.25461 1.7985,-1.15383 2.8169,-1.40845 1.108,-0.27698 6.9861,0 8.4507,0 5.1644,0 10.3287,0 15.493,0 0.939,0 1.8779,0 2.8169,0 0.939,0 1.9261,0.29693 2.8169,0 0.6299,-0.20996 0.856,-1.04016 1.4085,-1.40845 10.212,-5.10604 -2.227,1.48464 4.2253,-2.8169 0.8735,-0.58232 1.9434,-0.82613 2.8169,-1.40845 0.5524,-0.36829 0.856,-1.04016 1.4085,-1.40845 0.8734,-0.58232 2.0745,-0.66613 2.8169,-1.40845 0.3319,-0.33198 -0.42,-1.19849 0,-1.40845 0.8398,-0.41992 1.8779,0 2.8169,0 0.9389,-0.46949 1.9434,-0.82613 2.8169,-1.40845 0.5524,-0.3683 1.1115,-0.8146 1.4084,-1.40845 0.21,-0.41992 -0.4199,-1.1985 0,-1.40846 1.6797,-0.83983 3.9541,0.83984 5.6338,0 0.4199,-0.20995 -0.4199,-1.19849 0,-1.40845 0.5986,-0.2993 5.862,0 7.0423,0 2.8169,0 5.6338,0 8.4507,0 0.4695,0 1.0765,-0.33197 1.4084,0 0.332,0.33198 -0.3319,1.07648 0,1.40845 0.332,0.33198 1.0765,-0.33197 1.4085,0 0.332,0.33198 -0.332,1.07648 0,1.40846 0.332,0.33197 1.0765,-0.33198 1.4084,0 0.332,0.33197 -0.3319,1.07647 0,1.40845 0.7043,0.70422 3.5212,-0.70423 4.2254,0 0.332,0.33197 -0.4199,1.19849 0,1.40845 0.5986,0.2993 5.862,0 7.0422,0 3.2864,0 6.5728,0 9.8592,0 0.939,0 1.8779,0 2.8169,0 0.4695,0 0.963,0.14846 1.4084,0 0.996,-0.33198 1.821,-1.07648 2.8169,-1.40845 0.8908,-0.29693 2.153,0.66395 2.8169,0 0.332,-0.33198 -0.3319,-1.07648 0,-1.40845 0.088,-0.0877 6.7873,0.0637 7.0423,0 1.0184,-0.25462 1.821,-1.07648 2.8169,-1.40846 0.9126,-0.30418 5.8891,0 7.0422,0 0.4695,0 0.9886,0.20996 1.4085,0 0.5938,-0.29692 0.8146,-1.11152 1.4084,-1.40845 0.3704,-0.18517 4.8973,0 5.6338,0 4.6949,0 9.3897,0 14.0846,0"
         style="opacity:0.71604937;fill:none;stroke:#000000;stroke-width:3;stroke-linecap:butt;stroke-linejoin:miter;stroke-miterlimit:4;stroke-opacity:0.56621004;stroke-dasharray:none" />
      <g
         transform="translate(-1040.7042,-50.45074)"
         id="g4324">
        <path
           style="fill:none;stroke:#000000;stroke-width:2.99158478;stroke-linecap:butt;stroke-linejoin:miter;stroke-miterlimit:4;stroke-opacity:1;stroke-dasharray:none"
           d="m -98.5,549.5453 1000,0"
           id="path4140"
           inkscape:connector-curvature="0" />
        <path
           style="fill:none;stroke:#000000;stroke-width:3;stroke-linecap:butt;stroke-linejoin:miter;stroke-miterlimit:4;stroke-opacity:1;stroke-dasharray:none"
           d="m -98.5,533.4608 0,33.80282"
           id="path4156"
           inkscape:connector-curvature="0" />
        <path
           style="fill:none;stroke:#000000;stroke-width:3;stroke-linecap:butt;stroke-linejoin:miter;stroke-miterlimit:4;stroke-opacity:1;stroke-dasharray:none"
           d="m 1.5,533.46104 0,33.80282"
           id="path4156-8"
           inkscape:connector-curvature="0" />
        <path
           style="fill:none;stroke:#000000;stroke-width:3;stroke-linecap:butt;stroke-linejoin:miter;stroke-miterlimit:4;stroke-opacity:1;stroke-dasharray:none"
           d="m 201.5,533.46038 0,33.80282"
           id="path4156-8-8"
           inkscape:connector-curvature="0" />
        <path
           style="fill:none;stroke:#000000;stroke-width:3;stroke-linecap:butt;stroke-linejoin:miter;stroke-miterlimit:4;stroke-opacity:1;stroke-dasharray:none"
           d="m 601.5,533.46104 0,33.80282"
           id="path4156-8-8-9"
           inkscape:connector-curvature="0" />
        <path
           style="fill:none;stroke:#000000;stroke-width:3;stroke-linecap:butt;stroke-linejoin:miter;stroke-miterlimit:4;stroke-opacity:1;stroke-dasharray:none"
           d="m 501.5,533.46104 0,33.80282"
           id="path4156-8-8-9-3"
           inkscape:connector-curvature="0" />
        <path
           style="fill:none;stroke:#000000;stroke-width:3;stroke-linecap:butt;stroke-linejoin:miter;stroke-miterlimit:4;stroke-opacity:1;stroke-dasharray:none"
           d="m 903.72533,533.46104 0,33.80282"
           id="path4156-8-8-7"
           inkscape:connector-curvature="0" />
        <path
           style="fill:none;stroke:#000000;stroke-width:3;stroke-linecap:butt;stroke-linejoin:miter;stroke-miterlimit:4;stroke-opacity:1;stroke-dasharray:none"
           d="m 101.5,533.46038 0,33.80282"
           id="path4156-8-9"
           inkscape:connector-curvature="0" />
        <path
           style="fill:none;stroke:#000000;stroke-width:3;stroke-linecap:butt;stroke-linejoin:miter;stroke-miterlimit:4;stroke-opacity:1;stroke-dasharray:none"
           d="m 301.5,533.46038 0,33.80282"
           id="path4156-8-8-0"
           inkscape:connector-curvature="0" />
        <path
           style="fill:none;stroke:#000000;stroke-width:3;stroke-linecap:butt;stroke-linejoin:miter;stroke-miterlimit:4;stroke-opacity:1;stroke-dasharray:none"
           d="m 401.5,533.46038 0,33.80282"
           id="path4156-8-8-0-0"
           inkscape:connector-curvature="0" />
        <path
           style="fill:none;stroke:#000000;stroke-width:3;stroke-linecap:butt;stroke-linejoin:miter;stroke-miterlimit:4;stroke-opacity:1;stroke-dasharray:none"
           d="m 701.5,533.46038 0,33.80282"
           id="path4156-8-8-9-4"
           inkscape:connector-curvature="0" />
        <path
           style="fill:none;stroke:#000000;stroke-width:3;stroke-linecap:butt;stroke-linejoin:miter;stroke-miterlimit:4;stroke-opacity:1;stroke-dasharray:none"
           d="m 801.5,533.46038 0,33.80282"
           id="path4156-8-8-9-4-6"
           inkscape:connector-curvature="0" />
      </g>
      <text
         sodipodi:linespacing="125%"
         id="text4338"
         y="553.44427"
         x="-1141.7784"
         style="font-size:40px;font-style:normal;font-weight:normal;line-height:125%;letter-spacing:0.76999998px;word-spacing:0px;fill:#000000;fill-opacity:1;stroke:none;font-family:Sans"
         xml:space="preserve"><tspan
           y="553.44427"
           x="-1141.7784"
           id="tspan4340"
           sodipodi:role="line">t<tspan
   id="tspan4342"
   style="font-size:26.00036621px;baseline-shift:sub">0</tspan></tspan></text>
      <text
         sodipodi:linespacing="125%"
         id="text4344"
         y="553.81244"
         x="-1041.7784"
         style="font-size:40px;font-style:normal;font-weight:normal;line-height:125%;letter-spacing:0.76999998px;word-spacing:0px;fill:#000000;fill-opacity:1;stroke:none;font-family:Sans"
         xml:space="preserve"><tspan
           y="553.81244"
           x="-1041.7784"
           id="tspan4346"
           sodipodi:role="line">t<tspan
   id="tspan4348"
   style="font-size:26.00036621px;baseline-shift:sub">1</tspan></tspan></text>
      <text
         sodipodi:linespacing="125%"
         id="text4350"
         y="553.81244"
         x="-941.77844"
         style="font-size:40px;font-style:normal;font-weight:normal;line-height:125%;letter-spacing:0.76999998px;word-spacing:0px;fill:#000000;fill-opacity:1;stroke:none;font-family:Sans"
         xml:space="preserve"><tspan
           y="553.81244"
           x="-941.77844"
           id="tspan4352"
           sodipodi:role="line">t<tspan
   id="tspan4402"
   style="font-size:26.00036621px;baseline-shift:sub">2</tspan></tspan></text>
      <text
         sodipodi:linespacing="125%"
         id="text4354"
         y="553.44427"
         x="-841.77844"
         style="font-size:40px;font-style:normal;font-weight:normal;line-height:125%;letter-spacing:0.76999998px;word-spacing:0px;fill:#000000;fill-opacity:1;stroke:none;font-family:Sans"
         xml:space="preserve"><tspan
           y="553.44427"
           x="-841.77844"
           id="tspan4356"
           sodipodi:role="line">t<tspan
   id="tspan4394"
   style="font-size:26.00036621px;baseline-shift:sub">3</tspan></tspan></text>
      <text
         sodipodi:linespacing="125%"
         id="text4358"
         y="553.81244"
         x="-741.77844"
         style="font-size:40px;font-style:normal;font-weight:normal;line-height:125%;letter-spacing:0.76999998px;word-spacing:0px;fill:#000000;fill-opacity:1;stroke:none;font-family:Sans"
         xml:space="preserve"><tspan
           y="553.81244"
           x="-741.77844"
           id="tspan4360"
           sodipodi:role="line">t<tspan
   id="tspan4400"
   style="font-size:26.00036621px;baseline-shift:sub">4</tspan></tspan></text>
      <text
         sodipodi:linespacing="125%"
         id="text4362"
         y="553.44427"
         x="-641.77844"
         style="font-size:40px;font-style:normal;font-weight:normal;line-height:125%;letter-spacing:0.76999998px;word-spacing:0px;fill:#000000;fill-opacity:1;stroke:none;font-family:Sans"
         xml:space="preserve"><tspan
           y="553.44427"
           x="-641.77844"
           id="tspan4364"
           sodipodi:role="line">t<tspan
   id="tspan4396"
   style="font-size:26.00036621px;baseline-shift:sub">5</tspan></tspan></text>
      <text
         sodipodi:linespacing="125%"
         id="text4366"
         y="553.44427"
         x="-541.77844"
         style="font-size:40px;font-style:normal;font-weight:normal;line-height:125%;letter-spacing:0.76999998px;word-spacing:0px;fill:#000000;fill-opacity:1;stroke:none;font-family:Sans"
         xml:space="preserve"><tspan
           y="553.44427"
           x="-541.77844"
           id="tspan4368"
           sodipodi:role="line">t<tspan
   id="tspan4398"
   style="font-size:26.00036621px;baseline-shift:sub">6</tspan></tspan></text>
      <text
         sodipodi:linespacing="125%"
         id="text4370"
         y="553.81244"
         x="-441.77847"
         style="font-size:40px;font-style:normal;font-weight:normal;line-height:125%;letter-spacing:0.76999998px;word-spacing:0px;fill:#000000;fill-opacity:1;stroke:none;font-family:Sans"
         xml:space="preserve"><tspan
           y="553.81244"
           x="-441.77847"
           id="tspan4372"
           sodipodi:role="line">t<tspan
   id="tspan4392"
   style="font-size:26.00036621px;baseline-shift:sub">7</tspan></tspan></text>
      <text
         sodipodi:linespacing="125%"
         id="text4374"
         y="553.44427"
         x="-341.77847"
         style="font-size:40px;font-style:normal;font-weight:normal;line-height:125%;letter-spacing:0.76999998px;word-spacing:0px;fill:#000000;fill-opacity:1;stroke:none;font-family:Sans"
         xml:space="preserve"><tspan
           y="553.44427"
           x="-341.77847"
           id="tspan4376"
           sodipodi:role="line">t<tspan
   id="tspan4390"
   style="font-size:26.00036621px;baseline-shift:sub">8</tspan></tspan></text>
      <text
         sodipodi:linespacing="125%"
         id="text4378"
         y="553.44427"
         x="-241.77846"
         style="font-size:40px;font-style:normal;font-weight:normal;line-height:125%;letter-spacing:0.76999998px;word-spacing:0px;fill:#000000;fill-opacity:1;stroke:none;font-family:Sans"
         xml:space="preserve"><tspan
           y="553.44427"
           x="-241.77846"
           id="tspan4380"
           sodipodi:role="line">t<tspan
   id="tspan4388"
   style="font-size:26.00036621px;baseline-shift:sub">9</tspan></tspan></text>
      <text
         sodipodi:linespacing="125%"
         id="text4382"
         y="553.44427"
         x="-141.77846"
         style="font-size:40px;font-style:normal;font-weight:normal;line-height:125%;letter-spacing:0.76999998px;word-spacing:0px;fill:#000000;fill-opacity:1;stroke:none;font-family:Sans"
         xml:space="preserve"><tspan
           y="553.44427"
           x="-141.77846"
           id="tspan4384"
           sodipodi:role="line">t<tspan
   id="tspan4386"
   style="font-size:26.00036621px;baseline-shift:sub">10</tspan></tspan></text>
      <path
         inkscape:connector-curvature="0"
         id="path4454"
         d="m -738.85879,488.72898 0,-353.52113"
         style="fill:none;stroke:#0000ee;stroke-width:4.00000048;stroke-linecap:butt;stroke-linejoin:miter;stroke-miterlimit:4;stroke-dasharray:none;stroke-dashoffset:0;stroke-opacity:1" />
      <path
         inkscape:connector-curvature="0"
         id="path4454-5-5"
         d="m -539.183,496.33588 0,-353.52113"
         style="fill:none;stroke:#007d00;stroke-width:4;stroke-linecap:butt;stroke-linejoin:miter;stroke-miterlimit:4;stroke-opacity:1;stroke-dasharray:3.99999989, 3.99999988999999978;stroke-dashoffset:0" />
      <text
         transform="matrix(-0.02119328,-0.99977546,0.99977534,-0.02119328,0,0)"
         sodipodi:linespacing="125%"
         id="text4888"
         y="-1057.1901"
         x="-208.24574"
         style="font-size:40px;font-style:normal;font-weight:normal;text-align:center;line-height:125%;letter-spacing:0.76999998px;word-spacing:0px;text-anchor:middle;fill:#000000;fill-opacity:1;stroke:none;font-family:Sans"
         xml:space="preserve"><tspan
           id="tspan5258"
           style="font-size:32.00000381px;font-weight:bold;text-align:center;writing-mode:lr-tb;text-anchor:middle;font-family:Times New Roman;-inkscape-font-specification:Times New Roman"
           y="-1057.1901"
           x="-207.86075"
           sodipodi:role="line">False Alarm</tspan></text>
      <text
         transform="matrix(-0.00404523,-0.99999188,0.99999176,-0.00404523,0,0)"
         sodipodi:linespacing="125%"
         id="text5306"
         y="-748.93744"
         x="-262.84549"
         style="font-size:25px;font-style:normal;font-weight:normal;line-height:125%;letter-spacing:0.76999998px;word-spacing:0px;fill:#000000;fill-opacity:1;stroke:none;font-family:Sans"
         xml:space="preserve"><tspan
           style="font-size:32.00000381px;font-weight:bold;text-align:center;text-anchor:middle;font-family:Times New Roman;-inkscape-font-specification:Times New Roman"
           id="tspan5310"
           y="-748.93744"
           x="-262.46048"
           sodipodi:role="line">True Change Point</tspan></text>
      <path
         inkscape:connector-curvature="0"
         id="path6836"
         d="m -738.6504,578.55872 0,26.99387 199.3865,0 0,-28.22086"
         style="fill:none;stroke:#000000;stroke-width:4;stroke-linecap:butt;stroke-linejoin:miter;stroke-miterlimit:4;stroke-opacity:1;stroke-dasharray:none;marker-start:url(#marker6902);marker-end:url(#marker6838)" />
      <text
         transform="scale(0.94158687,1.0620369)"
         xml:space="preserve"
         style="font-size:39.97701645px;font-style:normal;font-variant:normal;font-weight:normal;font-stretch:normal;line-height:125%;letter-spacing:0px;word-spacing:0px;fill:#000000;fill-opacity:1;stroke:none;font-family:Times New Roman;-inkscape-font-specification:Times New Roman"
         x="-773.41632"
         y="219.67415"
         id="text3881"
         sodipodi:linespacing="125%"><tspan
           sodipodi:role="line"
           id="tspan3883"
           x="-773.41632"
           y="219.67415"
           style="font-size:45.68802643px;font-weight:bold">Γ</tspan></text>
      <text
         transform="scale(0.94671177,1.0562877)"
         xml:space="preserve"
         style="font-size:35.83217239px;font-style:normal;font-variant:normal;font-weight:normal;font-stretch:normal;line-height:125%;letter-spacing:0px;word-spacing:0px;fill:#000000;fill-opacity:1;stroke:none;font-family:Times New Roman;-inkscape-font-specification:Times New Roman"
         x="-553.50519"
         y="207.9502"
         id="text3885"
         sodipodi:linespacing="125%"><tspan
           sodipodi:role="line"
           id="tspan3887"
           x="-553.50519"
           y="207.9502"
           style="font-size:40.95105743px;font-weight:bold">γ<tspan
   style="font-size:26.6185627px;baseline-shift:sub"
   id="tspan3914">2</tspan></tspan></text>
      <text
         transform="scale(0.97715805,1.0233759)"
         xml:space="preserve"
         style="font-size:43.40061188px;font-style:normal;font-variant:normal;font-weight:normal;font-stretch:normal;line-height:125%;letter-spacing:0px;word-spacing:0px;fill:#000000;fill-opacity:1;stroke:none;font-family:Times New Roman;-inkscape-font-specification:Times New Roman"
         x="-1051.1439"
         y="226.00607"
         id="text3885-3"
         sodipodi:linespacing="125%"><tspan
           sodipodi:role="line"
           id="tspan3887-5"
           x="-1051.1439"
           y="226.00607"
           style="font-size:49.60070038px;font-weight:bold">γ<tspan
   style="font-size:32.24090958px;baseline-shift:sub"
   id="tspan3916">1</tspan></tspan></text>
      <text
         sodipodi:linespacing="125%"
         id="text3091"
         y="641.36823"
         x="-849.61511"
         style="font-size:40px;font-style:normal;font-weight:normal;line-height:125%;letter-spacing:0px;word-spacing:0px;fill:#000000;fill-opacity:1;stroke:none;font-family:Sans"
         xml:space="preserve"><tspan
           style="font-family:Times New Roman;-inkscape-font-specification:Times New Roman"
           y="641.36823"
           x="-849.61511"
           id="tspan3093"
           sodipodi:role="line">Detection Delay =</tspan></text>
      <g
         id="g3157"
         transform="translate(1588.8436,342.03315)">
        <text
           sodipodi:linespacing="125%"
           id="text3881-3"
           y="285.20114"
           x="-2198.8264"
           style="font-size:39.97701645px;font-style:normal;font-variant:normal;font-weight:normal;font-stretch:normal;line-height:125%;letter-spacing:0px;word-spacing:0px;fill:#000000;fill-opacity:1;stroke:none;font-family:Times New Roman;-inkscape-font-specification:Times New Roman"
           xml:space="preserve"
           transform="scale(0.94158687,1.0620369)"><tspan
             style="font-size:45.68802643px;font-weight:bold"
             y="285.20114"
             x="-2198.8264"
             id="tspan3883-1"
             sodipodi:role="line">Γ</tspan></text>
        <text
           sodipodi:linespacing="125%"
           id="text3885-0"
           y="276.36005"
           x="-2251.8914"
           style="font-size:35.83217239px;font-style:normal;font-variant:normal;font-weight:normal;font-stretch:normal;line-height:125%;letter-spacing:0px;word-spacing:0px;fill:#000000;fill-opacity:1;stroke:none;font-family:Times New Roman;-inkscape-font-specification:Times New Roman"
           xml:space="preserve"
           transform="scale(0.94671177,1.0562877)"><tspan
             style="font-size:40.95105743px;font-weight:bold"
             y="276.36005"
             x="-2251.8914"
             id="tspan3887-0"
             sodipodi:role="line">γ<tspan
   id="tspan3914-8"
   style="font-size:26.6185627px;baseline-shift:sub">2</tspan></tspan></text>
        <text
           sodipodi:linespacing="125%"
           id="text3881-3-5"
           y="280.6326"
           x="-2235.9578"
           style="font-size:39.97701645px;font-style:normal;font-variant:normal;font-weight:normal;font-stretch:normal;line-height:125%;letter-spacing:0px;word-spacing:0px;fill:#000000;fill-opacity:1;stroke:none;font-family:Times New Roman;-inkscape-font-specification:Times New Roman"
           xml:space="preserve"
           transform="scale(0.94158687,1.0620369)"><tspan
             style="font-size:45.68802643px;font-weight:bold"
             y="280.6326"
             x="-2235.9578"
             id="tspan3883-1-1"
             sodipodi:role="line"> -</tspan></text>
      </g>
      <path
         inkscape:connector-curvature="0"
         id="path4454-5-5-4"
         d="m -1039.2475,490.67173 0,-353.52116"
         style="fill:none;stroke:#c60000;stroke-width:4.00000048;stroke-linecap:butt;stroke-linejoin:miter;stroke-miterlimit:4;stroke-opacity:1;stroke-dasharray:4.00000026, 4.00000026;stroke-dashoffset:0" />
      <text
         xml:space="preserve"
         style="font-size:25px;font-style:normal;font-weight:normal;line-height:125%;letter-spacing:0.76999998px;word-spacing:0px;fill:#000000;fill-opacity:1;stroke:none;font-family:Sans"
         x="-266.49005"
         y="-553.43738"
         id="text5306-7"
         sodipodi:linespacing="125%"
         transform="matrix(-0.00404523,-0.99999188,0.99999176,-0.00404523,0,0)"><tspan
           sodipodi:role="line"
           x="-266.10504"
           y="-553.43738"
           id="tspan5310-2"
           style="font-size:32.00000381px;font-weight:bold;text-align:center;text-anchor:middle;font-family:Times New Roman;-inkscape-font-specification:Times New Roman">Delayed Detection</tspan></text>
    </g>
  </g>
</svg>
